<svg width="1920" height="500" viewBox="0 0 1920 500" fill="none" xmlns="http://www.w3.org/2000/svg">
<g opacity="0.2" clip-path="url(#clip0_114_5743)">
<path d="M1920 -577.827H0V1418.85H1920V-577.827Z" fill="#231F20"/>
<path d="M1785.59 388.143C1787 388.483 1787.89 389.95 1787.56 391.428C1787.23 392.905 1785.82 393.824 1784.41 393.484C1783 393.145 1782.12 391.677 1782.44 390.2C1782.77 388.722 1784.18 387.804 1785.58 388.143H1785.59Z" fill="white"/>
<path d="M1501.81 355.148C1503.25 355.498 1504.16 356.995 1503.82 358.493C1503.49 360 1502.05 360.939 1500.61 360.589C1499.17 360.24 1498.27 358.742 1498.61 357.245C1498.93 355.737 1500.37 354.799 1501.81 355.148Z" fill="white"/>
<path d="M1559.17 370.013C1560.61 370.363 1561.52 371.87 1561.19 373.388C1560.85 374.905 1559.41 375.853 1557.96 375.504C1556.51 375.155 1555.6 373.647 1555.93 372.13C1556.27 370.612 1557.72 369.674 1559.17 370.023V370.013Z" fill="white"/>
<path d="M1130.99 206.616C1132.44 206.965 1133.34 208.473 1133.01 209.99C1132.68 211.508 1131.23 212.456 1129.78 212.107C1128.33 211.757 1127.42 210.25 1127.75 208.732C1128.08 207.215 1129.53 206.266 1130.99 206.616Z" fill="white"/>
<path d="M1459.37 336.989C1460.85 337.348 1461.77 338.885 1461.44 340.433C1461.09 341.98 1459.62 342.949 1458.13 342.589C1456.66 342.23 1455.73 340.692 1456.07 339.145C1456.41 337.597 1457.88 336.629 1459.37 336.989Z" fill="white"/>
<path d="M1066.93 451.128C1068.41 451.487 1069.34 453.034 1069 454.592C1068.65 456.149 1067.17 457.118 1065.69 456.758C1064.2 456.399 1063.27 454.851 1063.61 453.294C1063.96 451.737 1065.44 450.768 1066.93 451.128Z" fill="white"/>
<path d="M1516.35 481.518C1517.85 481.877 1518.78 483.434 1518.43 485.002C1518.09 486.559 1516.6 487.538 1515.1 487.178C1513.6 486.819 1512.67 485.261 1513.02 483.704C1513.36 482.137 1514.85 481.168 1516.35 481.528V481.518Z" fill="white"/>
<path d="M1634.49 319.268C1635.99 319.628 1636.93 321.195 1636.58 322.772C1636.23 324.34 1634.74 325.318 1633.23 324.959C1631.72 324.599 1630.78 323.032 1631.14 321.455C1631.48 319.887 1632.98 318.899 1634.49 319.268Z" fill="white"/>
<path d="M1889.89 91.3578C1891.43 91.7272 1892.39 93.3245 1892.04 94.9319C1891.68 96.5392 1890.15 97.5375 1888.62 97.1681C1887.08 96.7987 1886.12 95.2014 1886.48 93.5941C1886.83 91.9868 1888.36 90.9884 1889.89 91.3578Z" fill="white"/>
<path d="M1139.07 464.246C1140.62 464.616 1141.58 466.233 1141.23 467.86C1140.87 469.478 1139.33 470.496 1137.77 470.116C1136.22 469.747 1135.26 468.13 1135.61 466.502C1135.97 464.885 1137.51 463.867 1139.07 464.246Z" fill="white"/>
<path d="M1851.55 383.77C1853.12 384.15 1854.1 385.777 1853.73 387.404C1853.37 389.041 1851.81 390.06 1850.25 389.68C1848.68 389.301 1847.71 387.674 1848.07 386.046C1848.42 384.419 1849.99 383.391 1851.55 383.77Z" fill="white"/>
<path d="M991.574 422.047C993.168 422.436 994.166 424.093 993.801 425.76C993.437 427.428 991.843 428.476 990.24 428.087C988.646 427.697 987.648 426.04 988.013 424.373C988.377 422.705 989.971 421.657 991.574 422.047Z" fill="white"/>
<path d="M849.504 467.71C851.136 468.1 852.164 469.807 851.78 471.514C851.405 473.221 849.773 474.289 848.141 473.9C846.509 473.511 845.482 471.804 845.856 470.096C846.231 468.389 847.863 467.321 849.495 467.71H849.504Z" fill="white"/>
<path d="M873.994 425.651C875.665 426.05 876.702 427.797 876.318 429.534C875.934 431.281 874.273 432.37 872.602 431.97C870.932 431.571 869.895 429.834 870.279 428.087C870.663 426.34 872.334 425.252 873.994 425.651Z" fill="white"/>
<path d="M1909.31 257.701C1910.99 258.11 1912.04 259.857 1911.66 261.614C1911.27 263.371 1909.59 264.469 1907.91 264.06C1906.23 263.661 1905.18 261.904 1905.57 260.147C1905.95 258.389 1907.63 257.291 1909.31 257.701Z" fill="white"/>
<path d="M1525.39 426.369C1527.08 426.779 1528.15 428.546 1527.75 430.313C1527.36 432.08 1525.67 433.188 1523.98 432.779C1522.29 432.369 1521.23 430.612 1521.62 428.835C1522.01 427.068 1523.7 425.96 1525.39 426.369Z" fill="white"/>
<path d="M1300.58 454.263C1302.3 454.673 1303.36 456.46 1302.97 458.257C1302.58 460.054 1300.87 461.162 1299.15 460.752C1297.43 460.343 1296.36 458.556 1296.76 456.759C1297.15 454.962 1298.86 453.854 1300.58 454.263Z" fill="white"/>
<path d="M1878.93 191.95C1880.66 192.359 1881.73 194.166 1881.34 195.963C1880.95 197.77 1879.22 198.889 1877.5 198.479C1875.77 198.07 1874.7 196.263 1875.09 194.466C1875.48 192.669 1877.2 191.541 1878.93 191.95Z" fill="white"/>
<path d="M679.815 199.767C681.552 200.186 682.637 202.003 682.243 203.82C681.84 205.637 680.112 206.775 678.365 206.356C676.627 205.937 675.533 204.13 675.936 202.303C676.339 200.486 678.067 199.348 679.815 199.767Z" fill="white"/>
<path d="M1786.27 247.368C1788.03 247.787 1789.13 249.624 1788.72 251.461C1788.32 253.298 1786.56 254.446 1784.8 254.026C1783.05 253.607 1781.94 251.77 1782.35 249.933C1782.76 248.096 1784.51 246.948 1786.27 247.378V247.368Z" fill="white"/>
<path d="M769.67 245.99C771.437 246.419 772.55 248.256 772.137 250.113C771.734 251.97 769.968 253.118 768.192 252.699C766.426 252.27 765.312 250.433 765.725 248.576C766.128 246.719 767.894 245.571 769.67 245.99Z" fill="white"/>
<path d="M1569.5 186.949C1571.29 187.378 1572.4 189.235 1571.99 191.102C1571.58 192.969 1569.8 194.127 1568.02 193.697C1566.23 193.268 1565.12 191.411 1565.53 189.544C1565.94 187.677 1567.72 186.519 1569.5 186.949Z" fill="white"/>
<path d="M1597.18 286.732C1598.97 287.162 1600.08 289.029 1599.68 290.895C1599.26 292.762 1597.48 293.93 1595.69 293.501C1593.91 293.072 1592.79 291.205 1593.2 289.338C1593.61 287.471 1595.4 286.303 1597.18 286.732Z" fill="white"/>
<path d="M955.756 260.216C957.552 260.646 958.675 262.523 958.262 264.41C957.849 266.286 956.054 267.464 954.249 267.035C952.454 266.606 951.331 264.729 951.744 262.852C952.156 260.975 953.952 259.797 955.756 260.226V260.216Z" fill="white"/>
<path d="M860.583 351.524C862.416 351.963 863.559 353.87 863.136 355.777C862.714 357.694 860.89 358.882 859.056 358.443C857.223 358.003 856.08 356.096 856.503 354.18C856.925 352.273 858.749 351.075 860.583 351.514V351.524Z" fill="white"/>
<path d="M1735.91 306.799C1737.75 307.238 1738.91 309.165 1738.48 311.082C1738.06 313.008 1736.22 314.206 1734.37 313.767C1732.53 313.328 1731.38 311.401 1731.8 309.484C1732.22 307.557 1734.07 306.359 1735.9 306.799H1735.91Z" fill="white"/>
<path d="M1797.9 152.696C1799.81 153.155 1801.01 155.152 1800.57 157.148C1800.13 159.145 1798.21 160.393 1796.3 159.934C1794.39 159.474 1793.19 157.478 1793.64 155.481C1794.08 153.484 1795.99 152.236 1797.9 152.696Z" fill="white"/>
<path d="M1107.56 27.5243C1109.48 27.9835 1110.67 29.9802 1110.24 31.9869C1109.8 33.9935 1107.89 35.2414 1105.97 34.7822C1104.05 34.323 1102.86 32.3263 1103.3 30.3196C1103.74 28.3229 1105.65 27.0651 1107.57 27.5243H1107.56Z" fill="white"/>
<path d="M1664.29 369.384C1666.22 369.844 1667.42 371.85 1666.98 373.867C1666.54 375.884 1664.62 377.141 1662.69 376.672C1660.76 376.203 1659.56 374.206 1660 372.19C1660.45 370.173 1662.37 368.915 1664.29 369.384Z" fill="white"/>
<path d="M966.595 66.4794C968.553 66.9486 969.772 68.9852 969.321 71.0318C968.87 73.0784 966.921 74.3463 964.963 73.877C963.004 73.4078 961.785 71.3712 962.236 69.3246C962.688 67.278 964.636 66.0102 966.595 66.4794Z" fill="white"/>
<path d="M681.139 416.826C683.098 417.295 684.326 419.342 683.875 421.388C683.424 423.435 681.465 424.713 679.507 424.243C677.549 423.774 676.32 421.728 676.771 419.681C677.222 417.634 679.181 416.347 681.139 416.826Z" fill="white"/>
<path d="M1513.21 337.987C1515.2 338.466 1516.44 340.533 1515.98 342.619C1515.52 344.696 1513.55 345.994 1511.55 345.514C1509.56 345.035 1508.32 342.969 1508.77 340.892C1509.24 338.816 1511.21 337.518 1513.2 337.997L1513.21 337.987Z" fill="white"/>
<path d="M1439.37 305.881C1441.36 306.36 1442.6 308.436 1442.15 310.523C1441.69 312.609 1439.7 313.907 1437.71 313.428C1435.72 312.949 1434.48 310.872 1434.93 308.796C1435.39 306.709 1437.38 305.411 1439.37 305.891V305.881Z" fill="white"/>
<path d="M976.215 31.8572C978.221 32.3364 979.469 34.4229 979.009 36.5194C978.548 38.616 976.551 39.9238 974.545 39.4446C972.538 38.9654 971.29 36.8789 971.751 34.7823C972.212 32.6858 974.209 31.378 976.215 31.8672V31.8572Z" fill="white"/>
<path d="M1847.99 24.1996C1850.02 24.6888 1851.28 26.7953 1850.81 28.9118C1850.34 31.0282 1848.33 32.346 1846.3 31.8569C1844.28 31.3677 1843.01 29.2612 1843.48 27.1447C1843.94 25.0282 1845.97 23.7105 1847.99 24.1996Z" fill="white"/>
<path d="M1787.89 303.145C1789.94 303.634 1791.23 305.781 1790.76 307.937C1790.29 310.083 1788.23 311.431 1786.17 310.932C1784.11 310.443 1782.83 308.296 1783.3 306.14C1783.77 303.994 1785.82 302.646 1787.89 303.145Z" fill="white"/>
<path d="M1390.89 402.599C1392.97 403.098 1394.27 405.274 1393.79 407.441C1393.31 409.617 1391.23 410.975 1389.15 410.476C1387.07 409.977 1385.77 407.81 1386.25 405.634C1386.73 403.457 1388.8 402.1 1390.89 402.599Z" fill="white"/>
<path d="M685.152 122.506C687.274 123.015 688.598 125.231 688.109 127.448C687.619 129.664 685.497 131.052 683.376 130.542C681.254 130.033 679.93 127.817 680.419 125.601C680.909 123.384 683.021 121.997 685.152 122.506Z" fill="white"/>
<path d="M1629.61 20.4659C1631.77 20.985 1633.11 23.2313 1632.61 25.4775C1632.11 27.7238 1629.96 29.1315 1627.81 28.6123C1625.65 28.0932 1624.31 25.8469 1624.81 23.6006C1625.31 21.3444 1627.46 19.9468 1629.61 20.4559V20.4659Z" fill="white"/>
<path d="M1328.95 262.762C1331.11 263.281 1332.46 265.537 1331.96 267.794C1331.46 270.05 1329.31 271.467 1327.14 270.938C1324.98 270.419 1323.63 268.163 1324.13 265.907C1324.63 263.651 1326.78 262.243 1328.95 262.762Z" fill="white"/>
<path d="M1446.84 62.2861C1449 62.8052 1450.35 65.0615 1449.85 67.3177C1449.35 69.5839 1447.19 70.9916 1445.03 70.4725C1442.87 69.9533 1441.52 67.6971 1442.01 65.4309C1442.51 63.1746 1444.67 61.757 1446.83 62.2761L1446.84 62.2861Z" fill="white"/>
<path d="M573.609 380.546C575.808 381.075 577.181 383.361 576.672 385.657C576.163 387.953 573.974 389.381 571.776 388.852C569.577 388.323 568.205 386.037 568.713 383.74C569.222 381.444 571.411 380.017 573.609 380.546Z" fill="white"/>
<path d="M1556.18 180.08C1558.4 180.609 1559.77 182.915 1559.26 185.231C1558.75 187.548 1556.54 188.985 1554.33 188.456C1552.11 187.927 1550.73 185.621 1551.23 183.305C1551.74 180.989 1553.95 179.551 1556.17 180.08H1556.18Z" fill="white"/>
<path d="M186.826 221.481C189.053 222.01 190.445 224.336 189.926 226.652C189.418 228.978 187.19 230.426 184.973 229.887C182.746 229.358 181.363 227.042 181.872 224.715C182.381 222.389 184.598 220.942 186.826 221.481Z" fill="white"/>
<path d="M1739.16 0.359527C1741.42 0.908612 1742.83 3.26465 1742.31 5.63071C1741.8 7.99677 1739.53 9.47429 1737.27 8.92521C1735.01 8.37612 1733.6 6.02009 1734.12 3.66402C1734.63 1.29796 1736.89 -0.179625 1739.16 0.36946V0.359527Z" fill="white"/>
<path d="M448.982 66.9385C451.257 67.4876 452.678 69.8536 452.16 72.2396C451.632 74.6157 449.366 76.1031 447.091 75.5541C444.816 75.005 443.395 72.6289 443.913 70.2529C444.441 67.8769 446.707 66.3894 448.992 66.9385H448.982Z" fill="white"/>
<path d="M947.952 67.1581C950.285 67.7171 951.744 70.1531 951.207 72.589C950.669 75.025 948.346 76.5524 946.004 75.9933C943.671 75.4343 942.212 72.9983 942.749 70.5624C943.287 68.1264 945.61 66.599 947.952 67.1581Z" fill="white"/>
<path opacity="0.17" d="M1920 242.536L1908.61 260.875L1920 268.033V242.536Z" fill="white"/>
<path opacity="0.17" d="M1920 242.536L1908.61 260.875L1920 268.033V242.536Z" fill="white"/>
<path opacity="0.17" d="M1920 242.536L1908.61 260.875L1920 268.033V242.536Z" fill="white"/>
<path opacity="0.16" d="M1847.15 28.0333L1779.2 -95.5408L1796.66 -5.60067L1847.15 28.0333Z" fill="white"/>
<path opacity="0.16" d="M1847.15 28.0333L1779.2 -95.5408L1796.66 -5.60067L1847.15 28.0333Z" fill="white"/>
<path opacity="0.16" d="M1847.15 28.0333L1779.2 -95.5408L1796.66 -5.60067L1847.15 28.0333Z" fill="white"/>
<path opacity="0.22" d="M1458.76 339.784L1501.21 357.874L1558.56 372.759L1458.76 339.784Z" fill="white"/>
<path opacity="0.22" d="M1458.76 339.784L1501.21 357.874L1558.56 372.759L1458.76 339.784Z" fill="white"/>
<path opacity="0.01" d="M1458.76 339.784L1633.86 322.113L1501.21 357.874L1458.76 339.784Z" fill="white"/>
<path opacity="0.14" d="M1458.76 339.784L1515.73 484.353L1558.56 372.759L1458.76 339.784Z" fill="white"/>
<path opacity="0.3" d="M952.829 567.974L919.671 556.653L1066.3 453.944L952.829 567.974Z" fill="white"/>
<path opacity="0.3" d="M952.829 567.974L919.671 556.653L1066.3 453.944L952.829 567.974Z" fill="white"/>
<path opacity="0.3" d="M952.829 567.974L919.671 556.653L1066.3 453.944L952.829 567.974Z" fill="white"/>
<path opacity="0.19" d="M1458.76 339.784L1633.86 322.113L1515.73 484.353L1458.76 339.784Z" fill="white"/>
<path opacity="0.19" d="M1458.76 339.784L1633.86 322.113L1515.73 484.353L1458.76 339.784Z" fill="white"/>
<path opacity="0.22" d="M952.829 567.974L1084.88 619.907L1066.3 453.944L952.829 567.974Z" fill="white"/>
<path opacity="0.04" d="M990.902 425.071L1138.42 467.181L1287.22 549.554L990.902 425.071Z" fill="white"/>
<path opacity="0.3" d="M797.404 534.03L873.292 428.815L848.822 470.805L797.404 534.03Z" fill="white"/>
<path opacity="0.3" d="M797.404 534.03L873.292 428.815L848.822 470.805L797.404 534.03Z" fill="white"/>
<path opacity="0.3" d="M797.404 534.03L873.292 428.815L848.822 470.805L797.404 534.03Z" fill="white"/>
<path opacity="0.3" d="M1920 242.536L1908.61 260.875L1920 268.033V242.536Z" fill="white"/>
<path opacity="0.3" d="M1920 242.536L1908.61 260.875L1920 268.033V242.536Z" fill="white"/>
<path opacity="0.3" d="M1920 242.536L1908.61 260.875L1920 268.033V242.536Z" fill="white"/>
<path opacity="0.16" d="M806.601 571.438L797.404 534.03L873.292 428.815L806.601 571.438Z" fill="white"/>
<path opacity="0.28" d="M1920 249.724L1878.21 195.215L1908.61 260.875L1920 268.033V249.724Z" fill="white"/>
<path opacity="0.17" d="M1785.54 250.692L1878.21 195.215L1805.7 -18.0698L1785.54 250.692Z" fill="white"/>
<path opacity="0.17" d="M1785.54 250.692L1878.21 195.215L1805.7 -18.0698L1785.54 250.692Z" fill="white"/>
<path opacity="0.08" d="M1785.54 250.692L1878.21 195.215L1596.44 290.117L1785.54 250.692Z" fill="white"/>
<path opacity="0.01" d="M1568.76 190.323L1785.54 250.692L1805.7 -18.0698L1568.76 190.323Z" fill="white"/>
<path opacity="0.11" d="M768.931 249.334L679.094 203.062L955.007 263.621L768.931 249.334Z" fill="white"/>
<path opacity="0.24" d="M1568.76 190.323L1785.54 250.692L1596.44 290.116L1568.76 190.323Z" fill="white"/>
<path opacity="0.24" d="M1568.76 190.323L1785.54 250.692L1596.44 290.116L1568.76 190.323Z" fill="white"/>
<path opacity="0.18" d="M859.814 354.978L768.931 249.334L955.007 263.621L859.814 354.978Z" fill="white"/>
<path opacity="0.18" d="M859.814 354.978L768.931 249.334L955.007 263.621L859.814 354.978Z" fill="white"/>
<path opacity="0.19" d="M1735.14 310.283L1568.76 190.323L1596.44 290.116L1735.14 310.283Z" fill="white"/>
<path opacity="0.03" d="M1735.14 310.283L1568.76 190.323L1760.28 -21.2646L1735.14 310.283Z" fill="white"/>
<path opacity="0.03" d="M1735.14 310.283L1568.76 190.323L1760.28 -21.2646L1735.14 310.283Z" fill="white"/>
<path opacity="0.17" d="M1725.2 -46.4824L1548.13 -26.6055L1797.1 156.32L1725.2 -46.4824Z" fill="white"/>
<path opacity="0.06" d="M1732.01 -135.394L1548.13 -26.6056L1797.1 156.32L1732.01 -135.394Z" fill="white"/>
<path opacity="0.06" d="M1732.01 -135.394L1548.13 -26.6056L1797.1 156.32L1732.01 -135.394Z" fill="white"/>
<path opacity="0.11" d="M1725.2 -46.4824L1797.1 156.32L1663.5 373.028L1725.2 -46.4824Z" fill="white"/>
<path opacity="0.21" d="M1732.01 -135.394L1725.2 -46.4825L1797.1 156.32L1732.01 -135.394Z" fill="white"/>
<path opacity="0.03" d="M1512.37 341.741L1797.1 156.32L1663.5 373.028L1512.37 341.741Z" fill="white"/>
<path opacity="0.17" d="M965.778 70.1732L975.378 35.6507L1106.76 31.1482L965.778 70.1732Z" fill="white"/>
<path opacity="0.2" d="M1512.37 341.741L1438.54 309.644L1569.1 652.443L1512.37 341.741Z" fill="white"/>
<path opacity="0.2" d="M1512.37 341.741L1438.54 309.644L1569.1 652.443L1512.37 341.741Z" fill="white"/>
<path opacity="0.05" d="M1554.37 -228.429L1847.15 28.0334L1732.01 -135.394L1554.37 -228.429Z" fill="white"/>
<path opacity="0.3" d="M1847.15 28.0333L1779.2 -95.5408L1796.66 -5.60067L1847.15 28.0333Z" fill="white"/>
<path opacity="0.3" d="M1847.15 28.0333L1779.2 -95.5408L1796.66 -5.60067L1847.15 28.0333Z" fill="white"/>
<path opacity="0.3" d="M1847.15 28.0333L1779.2 -95.5408L1796.66 -5.60067L1847.15 28.0333Z" fill="white"/>
<path opacity="0.16" d="M1390.02 406.533L1512.37 341.741L1438.54 309.644L1390.02 406.533Z" fill="white"/>
<path opacity="0.17" d="M1810.5 -323.581L1847.14 28.0332L1796.66 -5.60078L1810.5 -323.581Z" fill="white"/>
<path opacity="0.07" d="M572.697 384.699L662.188 648.449L656.246 550.542L572.697 384.699Z" fill="white"/>
<path opacity="0.04" d="M572.697 384.699L656.246 550.543L684.268 126.519L572.697 384.699Z" fill="white"/>
<path opacity="0.2" d="M1628.71 24.5391L1445.93 66.3794L1328.04 266.855L1628.71 24.5391Z" fill="white"/>
<path opacity="0.09" d="M1691.83 -337.088L1533.54 -203.141L1628.71 24.5391L1691.83 -337.088Z" fill="white"/>
<path opacity="0.2" d="M1533.54 -203.141L1628.71 24.5392L1445.93 66.3795L1533.54 -203.141Z" fill="white"/>
<path opacity="0.25" d="M1555.26 184.273L1628.71 24.5391L1445.93 66.3794L1555.26 184.273Z" fill="white"/>
<path opacity="0.25" d="M1555.26 184.273L1628.71 24.5391L1445.93 66.3794L1555.26 184.273Z" fill="white"/>
<path opacity="0.23" d="M1555.26 184.273L1445.93 66.3794L1328.04 266.855L1555.26 184.273Z" fill="white"/>
<path opacity="0.15" d="M1533.54 -203.141L1555.26 184.273L1445.93 66.3795L1533.54 -203.141Z" fill="white"/>
<path opacity="0.17" d="M1770.98 -85.8568L1533.54 -203.141L1628.71 24.5392L1770.98 -85.8568Z" fill="white"/>
<path opacity="0.1" d="M1770.98 -85.8567L1763.3 -367.777L1628.71 24.5393L1770.98 -85.8567Z" fill="white"/>
<path opacity="0.03" d="M1738.2 4.64233L1555.26 184.273L1328.04 266.855L1738.2 4.64233Z" fill="white"/>
<path opacity="0.12" d="M1770.98 -85.8568L1533.54 -203.141L1555.26 184.273L1770.98 -85.8568Z" fill="white"/>
<path opacity="0.11" d="M1763.3 -367.777L1533.54 -203.141L1738.2 4.64222L1763.3 -367.777Z" fill="white"/>
<path opacity="0.23" d="M1770.98 -85.8568L1533.54 -203.141L1738.2 4.64234L1770.98 -85.8568Z" fill="white"/>
<path opacity="0.04" d="M1729.32 -287.88L1738.2 4.64234L1555.26 184.273L1729.32 -287.88Z" fill="white"/>
<path opacity="0.25" d="M448.032 71.2414L552.499 -116.635L668.17 -33.7037L448.032 71.2414Z" fill="white"/>
<path opacity="0.25" d="M448.032 71.2414L552.499 -116.635L668.17 -33.7037L448.032 71.2414Z" fill="white"/>
<path opacity="0.18" d="M1798.4 -48.7388L1770.98 -85.8569L1738.21 4.64223L1798.4 -48.7388Z" fill="white"/>
<path opacity="0.06" d="M946.972 71.5708L795.437 -159.764L1160.17 -256.403L946.972 71.5708Z" fill="white"/>
<path opacity="0.07" d="M946.973 71.5709L448.032 71.2415L668.17 -33.7036L946.973 71.5709Z" fill="white"/>
<path opacity="0.02" d="M1814.11 -577.827L1729.33 -287.88L1738.21 4.64233L1818.55 -577.827H1814.11Z" fill="white"/>
<path opacity="0.2" d="M946.972 71.5707L795.436 -159.764L668.169 -33.7038L946.972 71.5707Z" fill="white"/>
<path opacity="0.04" d="M946.973 71.5708L1230.94 -113.341L1160.17 -256.403L946.973 71.5708Z" fill="white"/>
<path d="M1558.56 372.968C1558.56 372.968 1558.53 372.968 1558.51 372.968L1501.16 358.083C1501.06 358.053 1500.99 357.943 1501.02 357.833C1501.05 357.724 1501.15 357.654 1501.26 357.684L1558.61 372.569C1558.71 372.599 1558.78 372.709 1558.75 372.818C1558.73 372.918 1558.65 372.978 1558.56 372.978V372.968Z" fill="white"/>
<g opacity="0.3">
<path d="M1501.22 358.083C1501.22 358.083 1501.16 358.083 1501.14 358.063L1458.68 339.973C1458.58 339.934 1458.53 339.814 1458.58 339.704C1458.62 339.594 1458.74 339.544 1458.83 339.594L1501.3 357.684C1501.4 357.724 1501.45 357.844 1501.41 357.954C1501.38 358.033 1501.3 358.083 1501.23 358.083H1501.22Z" fill="white"/>
</g>
<g opacity="0.56">
<path d="M1558.56 372.968C1558.56 372.968 1558.52 372.968 1558.5 372.958L1458.69 339.983C1458.59 339.953 1458.53 339.834 1458.56 339.724C1458.59 339.614 1458.71 339.554 1458.81 339.594L1558.62 372.569C1558.72 372.599 1558.78 372.719 1558.75 372.829C1558.72 372.918 1558.65 372.978 1558.56 372.978V372.968Z" fill="white"/>
</g>
<g opacity="0.06">
<path d="M1515.73 484.563C1515.73 484.563 1515.69 484.563 1515.66 484.553C1515.56 484.503 1515.5 484.383 1515.55 484.283L1558.39 372.689C1558.43 372.589 1558.54 372.539 1558.65 372.569C1558.74 372.609 1558.8 372.729 1558.75 372.839L1515.92 484.433C1515.89 484.513 1515.81 484.563 1515.73 484.563Z" fill="white"/>
</g>
<g opacity="0.71">
<path d="M919.67 556.862C919.613 556.862 919.545 556.832 919.507 556.772C919.449 556.672 919.469 556.543 919.565 556.483L1066.2 453.774C1066.29 453.714 1066.42 453.734 1066.48 453.834C1066.54 453.924 1066.52 454.064 1066.43 454.123L919.785 556.832C919.785 556.832 919.709 556.862 919.67 556.862Z" fill="white"/>
</g>
<g opacity="0.86">
<path d="M952.838 568.183C952.79 568.183 952.733 568.163 952.694 568.123C952.618 568.043 952.618 567.904 952.694 567.824L1066.17 453.794C1066.24 453.714 1066.38 453.714 1066.44 453.794C1066.52 453.874 1066.52 454.013 1066.44 454.093L952.973 568.123C952.973 568.123 952.886 568.183 952.838 568.183Z" fill="white"/>
</g>
<g opacity="0.79">
<path d="M1515.73 484.563C1515.66 484.563 1515.58 484.513 1515.55 484.433L1458.58 339.864C1458.54 339.754 1458.58 339.634 1458.68 339.594C1458.79 339.554 1458.9 339.594 1458.94 339.704L1515.92 484.273C1515.96 484.383 1515.92 484.503 1515.81 484.543C1515.78 484.553 1515.76 484.563 1515.73 484.563Z" fill="white"/>
</g>
<g opacity="0.49">
<path d="M1458.76 339.994C1458.66 339.994 1458.57 339.914 1458.56 339.804C1458.55 339.694 1458.62 339.584 1458.74 339.574L1633.84 321.904C1633.95 321.884 1634.05 321.974 1634.06 322.093C1634.07 322.203 1634 322.313 1633.88 322.323L1458.78 339.994H1458.76Z" fill="white"/>
</g>
<g opacity="0.67">
<path d="M1084.88 620.117C1084.78 620.117 1084.69 620.037 1084.68 619.937L1066.11 453.974C1066.1 453.864 1066.18 453.754 1066.28 453.744C1066.39 453.724 1066.49 453.814 1066.5 453.924L1085.07 619.887C1085.08 619.997 1085 620.107 1084.9 620.117H1084.88Z" fill="white"/>
</g>
<g opacity="0.57">
<path d="M1515.73 484.563C1515.73 484.563 1515.65 484.553 1515.62 484.523C1515.53 484.453 1515.51 484.323 1515.58 484.233L1633.72 321.994C1633.79 321.904 1633.91 321.884 1634 321.954C1634.08 322.024 1634.1 322.153 1634.03 322.243L1515.91 484.483C1515.87 484.543 1515.81 484.563 1515.74 484.563H1515.73Z" fill="white"/>
</g>
<g opacity="0.05">
<path d="M1084.88 620.117C1084.88 620.117 1084.83 620.117 1084.81 620.107C1084.7 620.067 1084.66 619.947 1084.69 619.837L1138.24 467.112C1138.28 467.002 1138.4 466.942 1138.49 466.992C1138.6 467.032 1138.65 467.152 1138.61 467.261L1085.06 619.987C1085.03 620.067 1084.95 620.127 1084.88 620.127V620.117Z" fill="white"/>
</g>
<g opacity="0.57">
<path d="M1287.22 549.764C1287.22 549.764 1287.15 549.764 1287.12 549.744L1138.32 467.361C1138.22 467.311 1138.19 467.181 1138.23 467.082C1138.28 466.982 1138.41 466.942 1138.5 466.992L1287.29 549.374C1287.39 549.424 1287.43 549.554 1287.38 549.654C1287.34 549.724 1287.27 549.764 1287.21 549.764H1287.22Z" fill="white"/>
</g>
<g opacity="0.12">
<path d="M1138.42 467.381C1138.42 467.381 1138.38 467.381 1138.36 467.381L990.845 425.271C990.739 425.241 990.682 425.122 990.711 425.012C990.739 424.902 990.845 424.832 990.96 424.862L1138.47 466.972C1138.58 467.002 1138.65 467.122 1138.61 467.231C1138.59 467.321 1138.5 467.381 1138.42 467.381Z" fill="white"/>
</g>
<g opacity="0.14">
<path d="M1920 251.241L1850.73 386.626C1850.68 386.725 1850.71 386.855 1850.81 386.905C1850.84 386.925 1850.88 386.935 1850.91 386.935C1850.98 386.935 1851.05 386.895 1851.08 386.825L1920.01 252.13V251.241H1920Z" fill="white"/>
</g>
<g opacity="0.46">
<path d="M848.822 471.015C848.736 471.015 848.659 470.955 848.63 470.865C848.602 470.755 848.659 470.636 848.765 470.606L990.845 424.872C990.96 424.842 991.056 424.902 991.094 425.012C991.123 425.122 991.066 425.241 990.96 425.271L848.88 471.005C848.88 471.005 848.842 471.015 848.822 471.015Z" fill="white"/>
</g>
<g opacity="0.15">
<path d="M724.935 726.848C724.935 726.848 724.877 726.848 724.848 726.828C724.752 726.779 724.714 726.649 724.762 726.549L848.65 470.715C848.698 470.616 848.823 470.566 848.919 470.625C849.015 470.675 849.053 470.805 849.005 470.905L725.117 726.739C725.079 726.809 725.011 726.848 724.944 726.848H724.935Z" fill="white"/>
</g>
<g opacity="0.99">
<path d="M797.405 534.24C797.405 534.24 797.319 534.22 797.28 534.19C797.194 534.12 797.184 533.98 797.261 533.89L848.679 470.675C848.755 470.586 848.88 470.576 848.957 470.645C849.043 470.725 849.053 470.855 848.976 470.945L797.559 534.17C797.559 534.17 797.463 534.24 797.405 534.24Z" fill="white"/>
</g>
<g opacity="0.86">
<path d="M848.822 471.015C848.822 471.015 848.755 471.005 848.717 470.985C848.621 470.925 848.592 470.795 848.65 470.695L873.12 428.695C873.178 428.596 873.302 428.566 873.398 428.625C873.494 428.685 873.523 428.815 873.466 428.915L848.995 470.915C848.957 470.975 848.89 471.015 848.822 471.015Z" fill="white"/>
</g>
<g opacity="0.32">
<path d="M1920 303.424L1908.81 260.825C1908.78 260.716 1908.66 260.646 1908.56 260.686C1908.45 260.716 1908.39 260.825 1908.42 260.945L1920 305.002V303.434V303.424Z" fill="white"/>
</g>
<path d="M797.405 534.24C797.405 534.24 797.319 534.23 797.29 534.2C797.203 534.13 797.184 534 797.251 533.91L873.139 428.696C873.207 428.606 873.331 428.586 873.418 428.656C873.504 428.726 873.523 428.855 873.456 428.945L797.568 534.16C797.53 534.21 797.472 534.24 797.405 534.24Z" fill="white"/>
<path d="M1920 242.156L1908.44 260.765C1908.38 260.865 1908.41 260.995 1908.5 261.055C1908.54 261.075 1908.57 261.085 1908.61 261.085C1908.67 261.085 1908.74 261.055 1908.78 260.985L1920 242.915V242.146V242.156Z" fill="white"/>
<path d="M1920 267.784L1908.71 260.696C1908.61 260.636 1908.49 260.666 1908.43 260.765C1908.37 260.865 1908.4 260.995 1908.5 261.055L1919.99 268.273V267.784H1920Z" fill="white"/>
<g opacity="0.19">
<path d="M806.602 571.647C806.602 571.647 806.544 571.647 806.515 571.627C806.419 571.577 806.371 571.448 806.419 571.348L873.11 428.726C873.158 428.616 873.274 428.576 873.379 428.626C873.475 428.676 873.514 428.795 873.466 428.905L806.774 571.528C806.736 571.607 806.669 571.647 806.592 571.647H806.602Z" fill="white"/>
</g>
<g opacity="0.11">
<path d="M1124.38 640.612C1124.33 640.612 1124.27 640.592 1124.24 640.552C1124.16 640.473 1124.16 640.343 1124.24 640.253L1299.72 457.358C1299.8 457.278 1299.93 457.278 1300 457.358C1300.08 457.438 1300.08 457.567 1300 457.657L1124.51 640.552C1124.51 640.552 1124.43 640.612 1124.37 640.612H1124.38Z" fill="white"/>
</g>
<g opacity="0.25">
<path d="M1920 179.281L1878.14 195.015C1878.04 195.055 1877.99 195.175 1878.03 195.285C1878.06 195.374 1878.13 195.424 1878.21 195.424C1878.23 195.424 1878.26 195.424 1878.28 195.414L1920 179.731V179.291V179.281Z" fill="white"/>
</g>
<g opacity="0.45">
<path d="M1920 249.394L1878.37 195.095C1878.31 195.005 1878.18 194.995 1878.1 195.065C1878.01 195.135 1878 195.265 1878.07 195.354L1920.01 250.063V249.394H1920Z" fill="white"/>
</g>
<g opacity="0.63">
<path d="M1908.61 261.085C1908.54 261.085 1908.47 261.045 1908.43 260.965L1878.04 195.304C1877.99 195.205 1878.04 195.075 1878.13 195.025C1878.23 194.975 1878.36 195.025 1878.4 195.125L1908.8 260.785C1908.84 260.885 1908.8 261.015 1908.71 261.065C1908.68 261.085 1908.65 261.085 1908.62 261.085H1908.61Z" fill="white"/>
</g>
<g opacity="0.43">
<path d="M1299.87 457.717C1299.77 457.717 1299.69 457.637 1299.68 457.538C1299.67 457.428 1299.74 457.318 1299.85 457.308L1524.67 429.375C1524.78 429.345 1524.88 429.444 1524.89 429.554C1524.9 429.664 1524.83 429.774 1524.72 429.784L1299.9 457.717H1299.88H1299.87Z" fill="white"/>
</g>
<g opacity="0.64">
<path d="M1878.21 195.424C1878.13 195.424 1878.06 195.374 1878.03 195.285L1805.51 -18.01C1805.47 -18.1198 1805.53 -18.2396 1805.63 -18.2796C1805.74 -18.3195 1805.86 -18.2596 1805.89 -18.1498L1878.4 195.145C1878.44 195.255 1878.38 195.374 1878.28 195.414C1878.26 195.414 1878.23 195.424 1878.21 195.424Z" fill="white"/>
</g>
<g opacity="0.83">
<path d="M1785.54 250.902C1785.48 250.902 1785.41 250.862 1785.37 250.792C1785.31 250.692 1785.35 250.562 1785.45 250.512L1878.12 195.035C1878.21 194.975 1878.34 195.015 1878.38 195.115C1878.44 195.215 1878.4 195.344 1878.31 195.404L1785.64 250.882C1785.64 250.882 1785.57 250.912 1785.54 250.912V250.902Z" fill="white"/>
</g>
<g opacity="0.2">
<path d="M1785.54 250.902H1785.53C1785.43 250.902 1785.34 250.792 1785.35 250.682L1805.51 -18.0897C1805.51 -18.1995 1805.63 -18.2994 1805.72 -18.2794C1805.83 -18.2694 1805.91 -18.1696 1805.9 -18.0598L1785.74 250.712C1785.73 250.822 1785.65 250.902 1785.54 250.902Z" fill="white"/>
</g>
<g opacity="0.91">
<path d="M768.931 249.544C768.931 249.544 768.874 249.544 768.845 249.524L678.999 203.251C678.903 203.201 678.864 203.071 678.912 202.972C678.96 202.872 679.085 202.832 679.181 202.882L769.027 249.155C769.123 249.205 769.171 249.324 769.114 249.434C769.075 249.504 769.008 249.554 768.931 249.554V249.544Z" fill="white"/>
</g>
<g opacity="0.43">
<path d="M1785.54 250.902C1785.54 250.902 1785.51 250.902 1785.49 250.902L1568.72 190.523C1568.61 190.493 1568.54 190.383 1568.57 190.263C1568.6 190.153 1568.71 190.083 1568.82 190.113L1785.6 250.493C1785.71 250.523 1785.77 250.632 1785.74 250.752C1785.73 250.842 1785.64 250.902 1785.55 250.902H1785.54Z" fill="white"/>
</g>
<g opacity="0.54">
<path d="M1596.44 290.326C1596.35 290.326 1596.27 290.256 1596.25 290.157C1596.23 290.047 1596.3 289.937 1596.4 289.907L1785.5 250.493C1785.61 250.473 1785.71 250.543 1785.73 250.652C1785.75 250.762 1785.69 250.872 1785.58 250.892L1596.47 290.306C1596.47 290.306 1596.44 290.306 1596.43 290.306L1596.44 290.326Z" fill="white"/>
</g>
<g opacity="0.62">
<path d="M955.008 263.83C955.008 263.83 955.008 263.83 954.989 263.83L768.921 249.544C768.816 249.544 768.729 249.434 768.739 249.325C768.749 249.215 768.825 249.115 768.95 249.135L955.017 263.421C955.123 263.421 955.209 263.531 955.2 263.641C955.2 263.75 955.104 263.83 954.998 263.83H955.008Z" fill="white"/>
</g>
<path d="M1596.44 290.326C1596.35 290.326 1596.28 290.266 1596.25 290.176L1568.57 190.383C1568.54 190.273 1568.6 190.153 1568.71 190.123C1568.81 190.083 1568.93 190.153 1568.96 190.263L1596.63 290.057C1596.66 290.166 1596.6 290.286 1596.5 290.316C1596.48 290.316 1596.46 290.316 1596.44 290.316V290.326Z" fill="white"/>
<g opacity="0.23">
<path d="M859.815 355.188C859.757 355.188 859.709 355.168 859.671 355.118L768.787 249.474C768.711 249.384 768.72 249.255 768.797 249.175C768.874 249.095 769.008 249.105 769.075 249.195L859.959 354.839C860.035 354.928 860.026 355.058 859.949 355.138C859.911 355.168 859.863 355.188 859.815 355.188Z" fill="white"/>
</g>
<g opacity="0.09">
<path d="M1568.77 190.533C1568.72 190.533 1568.67 190.513 1568.63 190.473C1568.55 190.393 1568.54 190.263 1568.63 190.173L1760.14 -21.4043C1760.22 -21.4842 1760.34 -21.4942 1760.42 -21.4043C1760.5 -21.3245 1760.51 -21.1946 1760.42 -21.1148L1568.9 190.463C1568.9 190.463 1568.8 190.533 1568.76 190.533H1568.77Z" fill="white"/>
</g>
<g opacity="0.12">
<path d="M1735.14 310.493C1735.14 310.493 1735.07 310.483 1735.03 310.453L1568.65 190.483C1568.56 190.423 1568.53 190.293 1568.6 190.193C1568.67 190.103 1568.78 190.073 1568.88 190.143L1735.26 310.113C1735.34 310.183 1735.37 310.313 1735.31 310.403C1735.27 310.463 1735.21 310.493 1735.14 310.493Z" fill="white"/>
</g>
<g opacity="0.42">
<path d="M1735.14 310.493C1735.14 310.493 1735.12 310.493 1735.11 310.493L1596.41 290.316C1596.31 290.296 1596.23 290.196 1596.24 290.077C1596.26 289.967 1596.36 289.887 1596.46 289.897L1735.17 310.063C1735.28 310.083 1735.35 310.183 1735.34 310.293C1735.33 310.403 1735.25 310.473 1735.14 310.473V310.493Z" fill="white"/>
</g>
<g opacity="0.91">
<path d="M859.814 355.188C859.766 355.188 859.709 355.168 859.67 355.118C859.593 355.028 859.603 354.899 859.68 354.819L954.864 263.461C954.941 263.381 955.075 263.391 955.152 263.471C955.229 263.561 955.219 263.691 955.142 263.77L859.958 355.128C859.958 355.128 859.872 355.188 859.824 355.188H859.814Z" fill="white"/>
</g>
<g opacity="0.07">
<path d="M1735.14 310.493C1735.14 310.493 1735.13 310.493 1735.12 310.493C1735.02 310.493 1734.93 310.383 1734.94 310.273L1760.07 -21.2745C1760.07 -21.3844 1760.18 -21.4842 1760.29 -21.4642C1760.39 -21.4543 1760.48 -21.3544 1760.47 -21.2346L1735.33 310.313C1735.33 310.423 1735.24 310.502 1735.13 310.502L1735.14 310.493Z" fill="white"/>
</g>
<g opacity="0.11">
<path d="M1735.14 310.493C1735.14 310.493 1735.09 310.493 1735.07 310.473C1734.96 310.433 1734.92 310.303 1734.96 310.203L1796.91 156.24C1796.96 156.13 1797.07 156.09 1797.17 156.13C1797.27 156.17 1797.32 156.3 1797.27 156.399L1735.32 310.363C1735.3 310.443 1735.22 310.493 1735.14 310.493Z" fill="white"/>
</g>
<g opacity="0.24">
<path d="M1797.1 156.529C1797.1 156.529 1797.02 156.519 1796.99 156.489L1548.03 -26.4358C1547.94 -26.5057 1547.92 -26.6355 1547.98 -26.7253C1548.05 -26.8252 1548.17 -26.8452 1548.26 -26.7753L1797.22 156.15C1797.3 156.22 1797.32 156.35 1797.26 156.439C1797.23 156.499 1797.17 156.529 1797.1 156.529Z" fill="white"/>
</g>
<g opacity="0.57">
<path d="M1663.5 373.238C1663.5 373.238 1663.42 373.238 1663.39 373.208C1663.3 373.148 1663.28 373.018 1663.33 372.919L1796.94 156.21C1797 156.11 1797.12 156.09 1797.22 156.15C1797.31 156.21 1797.33 156.34 1797.27 156.439L1663.67 373.148C1663.63 373.208 1663.56 373.238 1663.5 373.238Z" fill="white"/>
</g>
<g opacity="0.75">
<path d="M1797.1 156.529C1797.02 156.529 1796.95 156.479 1796.92 156.389L1725.01 -46.4126C1724.98 -46.5224 1725.03 -46.6421 1725.13 -46.6821C1725.23 -46.722 1725.35 -46.6621 1725.39 -46.5623L1797.28 156.24C1797.32 156.349 1797.27 156.469 1797.17 156.509C1797.15 156.509 1797.12 156.519 1797.1 156.519V156.529Z" fill="white"/>
</g>
<g opacity="0.81">
<path d="M965.78 70.3826C965.693 70.3826 965.607 70.3228 965.588 70.2329C965.559 70.1231 965.626 70.0033 965.732 69.9733L1106.72 30.9484C1106.82 30.9184 1106.94 30.9883 1106.97 31.0981C1107 31.208 1106.93 31.3278 1106.82 31.3577L965.837 70.3826C965.837 70.3826 965.799 70.3826 965.789 70.3826H965.78Z" fill="white"/>
</g>
<g opacity="0.35">
<path d="M1663.5 373.238C1663.5 373.238 1663.47 373.238 1663.46 373.238L1512.35 341.95C1512.24 341.93 1512.17 341.82 1512.19 341.711C1512.21 341.601 1512.31 341.531 1512.42 341.551L1663.55 372.839C1663.65 372.859 1663.72 372.968 1663.7 373.078C1663.68 373.178 1663.59 373.248 1663.51 373.248L1663.5 373.238Z" fill="white"/>
</g>
<g opacity="0.21">
<path d="M408.787 588.589C408.72 588.589 408.653 588.559 408.615 588.489C408.557 588.389 408.586 588.26 408.682 588.21L680.208 420.359C680.304 420.299 680.419 420.329 680.477 420.429C680.535 420.529 680.506 420.659 680.41 420.709L408.883 588.559C408.883 588.559 408.816 588.589 408.778 588.589H408.787Z" fill="white"/>
</g>
<g opacity="0.93">
<path d="M965.779 70.3828C965.779 70.3828 965.741 70.3828 965.722 70.3828C965.616 70.3529 965.559 70.2331 965.587 70.1233L975.187 35.5908C975.216 35.481 975.331 35.4211 975.437 35.451C975.543 35.481 975.6 35.6008 975.571 35.7106L965.971 70.2431C965.943 70.3329 965.866 70.3928 965.779 70.3928V70.3828Z" fill="white"/>
</g>
<g opacity="0.36">
<path d="M1569.1 652.652C1569.01 652.652 1568.93 652.583 1568.9 652.483L1512.17 341.781C1512.15 341.671 1512.22 341.561 1512.33 341.541C1512.43 341.521 1512.54 341.591 1512.56 341.711L1569.28 652.413C1569.3 652.523 1569.23 652.632 1569.12 652.662C1569.11 652.662 1569.1 652.662 1569.08 652.662L1569.1 652.652Z" fill="white"/>
</g>
<path d="M1512.37 341.95C1512.37 341.95 1512.33 341.95 1512.3 341.93L1438.45 309.834C1438.36 309.784 1438.3 309.664 1438.35 309.564C1438.39 309.454 1438.5 309.405 1438.61 309.454L1512.44 341.551C1512.55 341.601 1512.6 341.721 1512.55 341.82C1512.52 341.9 1512.44 341.95 1512.37 341.95H1512.37Z" fill="white"/>
<g opacity="0.09">
<path d="M1569.1 652.652C1569.02 652.652 1568.95 652.603 1568.92 652.523L1438.35 309.724C1438.31 309.614 1438.36 309.494 1438.46 309.454C1438.56 309.414 1438.69 309.454 1438.72 309.574L1569.29 652.373C1569.33 652.483 1569.28 652.603 1569.18 652.642C1569.16 652.652 1569.13 652.652 1569.1 652.652Z" fill="white"/>
</g>
<g opacity="0.25">
<path d="M1847.15 28.2431C1847.09 28.2431 1847.02 28.2131 1846.98 28.1532L1731.85 -135.274C1731.78 -135.364 1731.8 -135.494 1731.89 -135.564C1731.97 -135.634 1732.1 -135.614 1732.17 -135.524L1847.3 27.9036C1847.37 27.9934 1847.35 28.1233 1847.26 28.1932C1847.22 28.2231 1847.18 28.2331 1847.15 28.2331V28.2431Z" fill="white"/>
</g>
<path d="M1847.15 28.2431C1847.15 28.2431 1847.07 28.233 1847.04 28.2131L1796.54 -5.42087C1796.45 -5.48077 1796.43 -5.61053 1796.49 -5.71036C1796.54 -5.8102 1796.67 -5.83016 1796.76 -5.77026L1847.26 27.8637C1847.35 27.9236 1847.39 28.0533 1847.32 28.1532C1847.28 28.2131 1847.21 28.2531 1847.16 28.2531L1847.15 28.2431Z" fill="white"/>
<path d="M1847.15 28.243C1847.08 28.243 1847.01 28.203 1846.97 28.1332L1779.02 -95.4409C1778.97 -95.5407 1779 -95.6705 1779.1 -95.7204C1779.2 -95.7803 1779.32 -95.7404 1779.37 -95.6405L1847.32 27.9335C1847.38 28.0334 1847.34 28.1631 1847.24 28.213C1847.21 28.233 1847.17 28.243 1847.15 28.243Z" fill="white"/>
<g opacity="0.18">
<path d="M1847.15 28.243C1847.04 28.243 1846.96 28.1632 1846.94 28.0533L1810.3 -323.561C1810.29 -323.67 1810.37 -323.78 1810.47 -323.79C1810.59 -323.82 1810.68 -323.72 1810.69 -323.611L1847.34 28.0034C1847.35 28.1132 1847.27 28.223 1847.16 28.233H1847.15V28.243Z" fill="white"/>
</g>
<g opacity="0.09">
<path d="M1390.02 406.742C1390.02 406.742 1389.96 406.742 1389.93 406.722C1389.83 406.672 1389.79 406.543 1389.84 406.443L1438.36 309.554C1438.41 309.454 1438.53 309.414 1438.63 309.464C1438.72 309.514 1438.76 309.644 1438.71 309.744L1390.2 406.632C1390.16 406.702 1390.09 406.742 1390.02 406.742Z" fill="white"/>
</g>
<g opacity="0.38">
<path d="M1787.03 307.248C1787.03 307.248 1787 307.248 1786.98 307.248C1786.88 307.228 1786.81 307.108 1786.83 306.998L1846.94 27.9935C1846.96 27.8837 1847.08 27.8138 1847.18 27.8337C1847.29 27.8637 1847.36 27.9735 1847.34 28.0833L1787.22 307.088C1787.2 307.188 1787.12 307.248 1787.03 307.248Z" fill="white"/>
</g>
<g opacity="0.33">
<path d="M1390.02 406.742C1389.95 406.742 1389.88 406.692 1389.84 406.622L1327.86 266.945C1327.81 266.835 1327.86 266.715 1327.96 266.666C1328.06 266.616 1328.18 266.666 1328.23 266.765L1390.21 406.443C1390.25 406.552 1390.21 406.672 1390.11 406.722C1390.08 406.732 1390.05 406.742 1390.02 406.742Z" fill="white"/>
</g>
<g opacity="0.17">
<path d="M1628.71 24.7487C1628.71 24.7487 1628.68 24.7487 1628.67 24.7487C1628.56 24.7287 1628.49 24.6189 1628.51 24.5091L1691.62 -337.128C1691.64 -337.238 1691.73 -337.328 1691.85 -337.298C1691.95 -337.278 1692.03 -337.168 1692.01 -337.058L1628.9 24.5789C1628.88 24.6788 1628.79 24.7487 1628.71 24.7487Z" fill="white"/>
</g>
<g opacity="0.38">
<path d="M656.246 550.752C656.179 550.752 656.102 550.712 656.073 550.642L572.525 384.789C572.477 384.689 572.515 384.559 572.611 384.509C572.707 384.449 572.832 384.489 572.88 384.599L656.429 550.453C656.477 550.553 656.438 550.682 656.342 550.732C656.313 550.752 656.285 550.752 656.246 550.752Z" fill="white"/>
</g>
<g opacity="0.1">
<path d="M1328.04 267.065C1327.99 267.065 1327.93 267.035 1327.89 266.985C1327.82 266.895 1327.84 266.766 1327.93 266.696L1628.59 24.3795C1628.68 24.3097 1628.8 24.3196 1628.87 24.4195C1628.94 24.5093 1628.92 24.6391 1628.83 24.7089L1328.17 267.025C1328.17 267.025 1328.09 267.065 1328.04 267.065Z" fill="white"/>
</g>
<g opacity="0.12">
<path d="M572.697 384.909C572.697 384.909 572.64 384.909 572.611 384.889C572.515 384.839 572.467 384.719 572.515 384.609L684.086 126.439C684.134 126.33 684.249 126.28 684.345 126.34C684.441 126.39 684.489 126.509 684.441 126.609L572.87 384.779C572.841 384.859 572.765 384.899 572.688 384.899L572.697 384.909Z" fill="white"/>
</g>
<path d="M1445.93 66.5889C1445.85 66.5889 1445.76 66.5191 1445.74 66.4292C1445.71 66.3194 1445.79 66.2096 1445.89 66.1796L1628.67 24.3393C1628.77 24.3194 1628.88 24.3893 1628.91 24.4991C1628.93 24.6089 1628.86 24.7287 1628.75 24.7487L1445.98 66.5889C1445.98 66.5889 1445.95 66.5889 1445.93 66.5889Z" fill="white"/>
<g opacity="0.88">
<path d="M1328.05 267.065C1328.05 267.065 1327.98 267.055 1327.94 267.035C1327.84 266.975 1327.81 266.845 1327.87 266.745L1445.77 66.2696C1445.83 66.1697 1445.95 66.1398 1446.05 66.1997C1446.14 66.2596 1446.17 66.3894 1446.12 66.4892L1328.22 266.965C1328.18 267.035 1328.11 267.065 1328.05 267.065Z" fill="white"/>
</g>
<g opacity="0.51">
<path d="M1628.71 24.7487C1628.63 24.7487 1628.55 24.6988 1628.53 24.6289L1533.36 -203.052C1533.31 -203.161 1533.36 -203.281 1533.47 -203.331C1533.56 -203.381 1533.69 -203.331 1533.73 -203.221L1628.89 24.4591C1628.94 24.5689 1628.89 24.6888 1628.78 24.7387C1628.76 24.7487 1628.73 24.7587 1628.71 24.7587V24.7487Z" fill="white"/>
</g>
<g opacity="0.64">
<path d="M1555.26 184.473C1555.26 184.473 1555.2 184.473 1555.17 184.453C1555.08 184.403 1555.03 184.273 1555.08 184.173L1628.53 24.4393C1628.58 24.3394 1628.71 24.2895 1628.8 24.3394C1628.9 24.3893 1628.95 24.5191 1628.9 24.619L1555.45 184.353C1555.42 184.423 1555.34 184.473 1555.27 184.473H1555.26Z" fill="white"/>
</g>
<g opacity="0.49">
<path d="M1445.93 66.589C1445.93 66.589 1445.88 66.589 1445.87 66.579C1445.76 66.5391 1445.7 66.4293 1445.74 66.3194L1533.35 -203.201C1533.39 -203.311 1533.5 -203.371 1533.6 -203.331C1533.71 -203.291 1533.76 -203.171 1533.72 -203.072L1446.11 66.4492C1446.09 66.5391 1446.01 66.589 1445.92 66.589H1445.93Z" fill="white"/>
</g>
<g opacity="0.54">
<path d="M1328.04 267.065C1327.96 267.065 1327.88 267.015 1327.85 266.925C1327.81 266.815 1327.87 266.696 1327.98 266.656L1555.19 184.063C1555.3 184.023 1555.41 184.083 1555.44 184.193C1555.48 184.303 1555.42 184.423 1555.32 184.463L1328.1 267.055C1328.1 267.055 1328.06 267.065 1328.04 267.065H1328.04Z" fill="white"/>
</g>
<g opacity="0.85">
<path d="M1555.26 184.473C1555.21 184.473 1555.15 184.453 1555.11 184.413L1445.8 66.5193C1445.72 66.4394 1445.72 66.2997 1445.8 66.2198C1445.88 66.1399 1446 66.1399 1446.08 66.2198L1555.39 184.113C1555.47 184.193 1555.47 184.333 1555.39 184.413C1555.35 184.453 1555.31 184.473 1555.25 184.473H1555.26Z" fill="white"/>
</g>
<g opacity="0.52">
<path d="M1628.71 24.7488C1628.65 24.7488 1628.58 24.7189 1628.54 24.669C1628.48 24.5791 1628.5 24.4493 1628.58 24.3795L1770.84 -86.0166C1770.93 -86.0865 1771.06 -86.0665 1771.12 -85.9766C1771.19 -85.8868 1771.17 -85.757 1771.08 -85.6871L1628.81 24.7089C1628.81 24.7089 1628.74 24.7488 1628.7 24.7488H1628.71Z" fill="white"/>
</g>
<g opacity="0.05">
<path d="M316.675 704.396C316.675 704.396 316.579 704.376 316.55 704.346C316.464 704.276 316.454 704.136 316.522 704.057L572.544 384.569C572.611 384.479 572.736 384.469 572.822 384.539C572.909 384.609 572.918 384.739 572.851 384.829L316.829 704.316C316.829 704.316 316.733 704.396 316.675 704.396Z" fill="white"/>
</g>
<g opacity="0.07">
<path d="M1628.71 24.7488C1628.61 24.7488 1628.52 24.6789 1628.51 24.579C1628.5 24.4692 1628.56 24.3594 1628.68 24.3394L1738.19 4.4426C1738.29 4.41265 1738.4 4.50248 1738.42 4.6123C1738.43 4.72211 1738.36 4.83198 1738.25 4.85195L1628.75 24.7488C1628.75 24.7488 1628.74 24.7488 1628.73 24.7488H1628.71Z" fill="white"/>
</g>
<g opacity="0.37">
<path d="M1555.26 184.472C1555.26 184.472 1555.17 184.463 1555.13 184.423C1555.05 184.353 1555.04 184.213 1555.11 184.123L1770.84 -86.0067C1770.9 -86.0965 1771.03 -86.1066 1771.11 -86.0367C1771.2 -85.9668 1771.21 -85.837 1771.14 -85.7372L1555.42 184.383C1555.38 184.433 1555.32 184.453 1555.27 184.453L1555.26 184.472Z" fill="white"/>
</g>
<g opacity="0.34">
<path d="M1738.21 4.85195C1738.17 4.85195 1738.12 4.83198 1738.08 4.79205L1533.42 -202.992C1533.34 -203.072 1533.34 -203.201 1533.42 -203.291C1533.49 -203.371 1533.62 -203.371 1533.7 -203.291L1738.36 4.4925C1738.44 4.57236 1738.45 4.7022 1738.36 4.79205C1738.32 4.83198 1738.27 4.85195 1738.21 4.85195Z" fill="white"/>
</g>
<g opacity="0.57">
<path d="M1555.26 184.473C1555.21 184.473 1555.15 184.453 1555.11 184.413C1555.04 184.323 1555.04 184.193 1555.11 184.113L1738.07 4.48266C1738.16 4.40279 1738.28 4.41272 1738.35 4.49259C1738.43 4.58244 1738.42 4.71227 1738.35 4.79214L1555.39 184.423C1555.39 184.423 1555.31 184.473 1555.26 184.473Z" fill="white"/>
</g>
<g opacity="0.09">
<path d="M1738.21 4.85209H1738.2C1738.1 4.85209 1738.01 4.74224 1738.02 4.63243L1763.11 -367.797C1763.12 -367.907 1763.21 -367.997 1763.32 -367.987C1763.42 -367.987 1763.51 -367.877 1763.5 -367.767L1738.42 4.66241C1738.42 4.77222 1738.32 4.85209 1738.21 4.85209Z" fill="white"/>
</g>
<path d="M1738.21 4.85211C1738.21 4.85211 1738.17 4.8521 1738.15 4.84211C1738.04 4.80218 1737.99 4.68236 1738.03 4.57254L1770.8 -85.9266C1770.83 -86.0364 1770.95 -86.0963 1771.06 -86.0464C1771.16 -86.0065 1771.21 -85.8867 1771.17 -85.7769L1738.41 4.72232C1738.38 4.80219 1738.3 4.86204 1738.22 4.86204L1738.21 4.85211Z" fill="white"/>
<g opacity="0.25">
<path d="M185.894 225.894C185.827 225.894 185.76 225.854 185.721 225.784C185.664 225.684 185.702 225.554 185.798 225.504L447.936 71.0616C448.032 71.0017 448.157 71.0416 448.205 71.1415C448.262 71.2413 448.224 71.3711 448.128 71.421L185.99 225.864C185.99 225.864 185.923 225.894 185.894 225.894Z" fill="white"/>
</g>
<g opacity="0.8">
<path d="M448.032 71.451C448.032 71.451 447.964 71.451 447.936 71.4211C447.84 71.3612 447.811 71.2314 447.859 71.1415L552.316 -116.745C552.374 -116.845 552.489 -116.875 552.585 -116.815C552.681 -116.755 552.71 -116.636 552.652 -116.536L448.195 71.3512C448.156 71.4211 448.089 71.451 448.022 71.451H448.032Z" fill="white"/>
</g>
<g opacity="0.05">
<path d="M448.032 71.4511C447.965 71.4511 447.897 71.4212 447.859 71.3513C447.801 71.2514 447.83 71.1216 447.917 71.0617L795.321 -159.953C795.408 -160.013 795.533 -159.983 795.6 -159.893C795.657 -159.793 795.629 -159.664 795.542 -159.604L448.137 71.4112C448.137 71.4112 448.07 71.4411 448.032 71.4411V71.4511Z" fill="white"/>
</g>
<g opacity="0.84">
<path d="M448.032 71.4511C447.955 71.4511 447.888 71.4012 447.85 71.3313C447.802 71.2315 447.85 71.1017 447.946 71.0518L668.083 -33.9033C668.179 -33.9532 668.304 -33.9033 668.352 -33.8035C668.4 -33.7036 668.352 -33.5738 668.256 -33.5239L448.119 71.4312C448.119 71.4312 448.061 71.4511 448.042 71.4511H448.032Z" fill="white"/>
</g>
<g opacity="0.52">
<path d="M1738.21 4.85193C1738.11 4.85193 1738.02 4.76207 1738.01 4.65225L1729.12 -287.87C1729.12 -287.98 1729.21 -288.08 1729.31 -288.09C1729.42 -288.09 1729.51 -288 1729.52 -287.89L1738.41 4.63227C1738.41 4.75207 1738.32 4.84195 1738.21 4.85193Z" fill="white"/>
</g>
<g opacity="0.6">
<path d="M1738.21 4.85186C1738.16 4.85186 1738.1 4.83188 1738.06 4.78197C1737.99 4.69212 1738 4.56234 1738.09 4.48248L1798.27 -48.8986C1798.36 -48.9685 1798.48 -48.9585 1798.56 -48.8786C1798.63 -48.7888 1798.62 -48.659 1798.54 -48.5791L1738.36 4.79196C1738.36 4.79196 1738.27 4.84186 1738.22 4.84186L1738.21 4.85186Z" fill="white"/>
</g>
<g opacity="0.47">
<path d="M946.973 71.7804C946.916 71.7804 946.849 71.7505 946.81 71.6906L795.274 -159.654C795.217 -159.754 795.236 -159.883 795.322 -159.943C795.418 -160.003 795.533 -159.983 795.601 -159.883L947.137 71.461C947.194 71.5608 947.175 71.6906 947.089 71.7505C947.05 71.7804 947.012 71.7904 946.973 71.7904V71.7804Z" fill="white"/>
</g>
<g opacity="0.38">
<path d="M946.973 71.7805C946.973 71.7805 946.925 71.7805 946.906 71.7705L668.103 -33.514C667.997 -33.554 667.949 -33.6737 667.988 -33.7835C668.026 -33.8934 668.141 -33.9433 668.247 -33.9033L947.05 71.3812C947.156 71.4211 947.204 71.5409 947.165 71.6507C947.137 71.7306 947.06 71.7905 946.983 71.7905L946.973 71.7805Z" fill="white"/>
</g>
<g opacity="0.03">
<path d="M957.983 511.038C957.878 511.038 957.791 510.948 957.782 510.839L946.771 71.5807C946.771 71.4709 946.857 71.3711 946.963 71.3711C947.068 71.3711 947.155 71.4609 947.164 71.5707L958.166 510.829C958.166 510.938 958.079 511.038 957.974 511.048L957.983 511.038Z" fill="white"/>
</g>
<g opacity="0.36">
<path d="M946.972 71.7806C946.905 71.7806 946.837 71.7507 946.799 71.6808C946.741 71.581 946.77 71.4512 946.866 71.3913L1230.82 -113.521C1230.92 -113.58 1231.04 -113.55 1231.1 -113.451C1231.16 -113.351 1231.13 -113.221 1231.04 -113.161L947.077 71.7507C947.077 71.7507 947.01 71.7806 946.972 71.7806Z" fill="white"/>
</g>
<g filter="url(#filter0_f_114_5743)">
<rect y="-139" width="1920" height="206" fill="#1C1B1E"/>
</g>
</g>
<defs>
<filter id="filter0_f_114_5743" x="-50" y="-189" width="2020" height="306" filterUnits="userSpaceOnUse" color-interpolation-filters="sRGB">
<feFlood flood-opacity="0" result="BackgroundImageFix"/>
<feBlend mode="normal" in="SourceGraphic" in2="BackgroundImageFix" result="shape"/>
<feGaussianBlur stdDeviation="25" result="effect1_foregroundBlur_114_5743"/>
</filter>
<clipPath id="clip0_114_5743">
<rect width="1920" height="500" fill="white"/>
</clipPath>
</defs>
</svg>
