<svg xmlns="http://www.w3.org/2000/svg" width="30" height="30" fill="none">
  <path fill="#FF7D16" fill-rule="evenodd" d="M11.77 15.14 8 15.15v-4.3l3.76-.01v-.16c0-2.43.35-3.45.35-3.48v-.02a5.11 5.11 0 0 1 3-3.7c1.2-.51 2.3-.48 2.46-.48h3.97v4.1h-2.11c-.89 0-1.45.27-1.8.7-.33.42-.42.96-.42 1.43v1.6h3.8v4.32h-3.8v12.16h-5.44V15.14Zm8.6-.7v-2.9h-3.8V9.23c0-.7.19-1.41.63-1.94.45-.53 1.16-.9 2.23-.9h1.46V3.7h-3.35c-.11-.01-1.06-.05-2.1.38a4.55 4.55 0 0 0-2.71 3.32c-.03.1-.37 1.2-.32 3.77v.36l-3.77.01v2.9l3.77-.01V26.6h4.16V14.45h3.8Z" clip-rule="evenodd"/>
</svg>
