<svg xmlns="http://www.w3.org/2000/svg" width="30" height="30" fill="none">
  <path fill="#FF7D16" fill-rule="evenodd" d="M9.36 3h11.28C24.14 3 27 5.85 27 9.36v11.28c0 3.5-2.85 6.36-6.36 6.36H9.36A6.37 6.37 0 0 1 3 20.64V9.36C3 5.86 5.85 3 9.36 3Zm11.28 23.15a5.52 5.52 0 0 0 5.51-5.51V9.36a5.52 5.52 0 0 0-5.51-5.51H9.36a5.52 5.52 0 0 0-5.51 5.51v11.28a5.52 5.52 0 0 0 5.51 5.51h11.28Z" clip-rule="evenodd"/>
  <path fill="#FF7D16" fill-rule="evenodd" d="M8.57 15a6.43 6.43 0 1 1 12.87.02A6.43 6.43 0 0 1 8.57 15Zm.85 0a5.59 5.59 0 1 0 11.17-.01A5.59 5.59 0 0 0 9.42 15ZM20.2 7.87a1.7 1.7 0 1 1 3.38 0 1.7 1.7 0 0 1-3.38 0Zm.84 0a.84.84 0 1 0 1.7 0 .84.84 0 0 0-1.7 0Z" clip-rule="evenodd"/>
</svg>
