<svg xmlns="http://www.w3.org/2000/svg" width="30" height="30" fill="none">
  <path fill="#FF7D16" d="M6.24 3a3.26 3.26 0 0 0-2.28 5.57c.6.61 1.44.98 2.24.94h.08a3 3 0 0 0 2.16-.94c.6-.6.96-1.42.96-2.32a3.07 3.07 0 0 0-.92-2.27A3 3 0 0 0 6.24 3Zm1.64 5c-.44.45-1.04.74-1.68.7a2.4 2.4 0 0 1-2.4-2.45c0-.65.24-1.26.72-1.74.44-.45 1.04-.7 1.72-.7.6 0 1.2.25 1.64.7.48.48.72 1.1.72 1.74 0 .66-.24 1.3-.72 1.75Zm-.08 2.32H4.56c-.64 0-1.16.53-1.16 1.22v14.24c0 .65.56 1.22 1.2 1.22h3.2c.64 0 1.2-.57 1.2-1.18V11.54c0-.65-.56-1.22-1.2-1.22Zm.4 15.5c0 .2-.2.37-.4.37H4.6c-.2 0-.4-.2-.4-.41V11.54c0-.2.16-.4.36-.4H7.8c.2 0 .4.2.4.4v14.28Zm13.2-15.9h-.84c-1.56 0-3.04.69-4 1.79v-.57c0-.41-.4-.82-.8-.82h-4c-.36 0-.8.33-.8.77v15.18c0 .45.44.73.8.73h4.4c.36 0 .8-.28.8-.73v-8.79c0-1.34.96-2.4 2.2-2.4.64 0 1.24.25 1.68.7.4.36.56.93.56 1.66v8.75c0 .4.4.81.8.81h4c.4 0 .8-.4.8-.81v-10.5a5.6 5.6 0 0 0-5.6-5.77Zm4.8 16.23-.04.04h-3.92l-.04-8.75c0-.98-.24-1.7-.76-2.24-.6-.6-1.4-.93-2.24-.93-1.68.04-3 1.42-3 3.21v8.7h-4.4V11.15h3.96l.04.04v2.56l1.08-1.1.04-.04a4.54 4.54 0 0 1 3.68-1.87h.84c2.68 0 4.76 2.2 4.76 4.96v10.46Z"/>
</svg>
