<svg xmlns="http://www.w3.org/2000/svg" width="30" height="30" fill="none">
  <path fill="#FF7D16" d="M28.72 9.48c0-.09-.28-2-1.17-2.91A4.21 4.21 0 0 0 24.7 5.3h-.19c-3.78-.26-9.44-.3-9.53-.3-.05 0-5.75.04-9.5.4h-.13c-.66.03-1.83.17-2.85 1.25-.94.92-1.22 2.87-1.22 2.96 0 0-.28 2.22-.28 4.43v2.05c0 2.17.28 4.39.28 4.43 0 .09.28 2 1.17 2.91.98 1.05 2.15 1.18 2.9 1.27.14 0 .23 0 .37.04 2.15.17 8.98.26 9.26.26.04 0 5.75 0 9.53-.4h.14a4.06 4.06 0 0 0 2.85-1.25c.94-.92 1.22-2.87 1.22-2.96 0 0 .28-2.22.28-4.43V13.9c0-2.17-.28-4.39-.28-4.43Zm-.65 6.56c0 2.18-.29 4.35-.29 4.35-.09.48-.37 1.87-.98 2.48-.8.87-1.73.96-2.24 1h-.14c-3.74.26-9.4.26-9.44.26-.05 0-7.06-.09-9.12-.3-.14 0-.28-.05-.42-.05a3.36 3.36 0 0 1-2.34-.95c-.56-.57-.88-1.96-.93-2.44 0-.04-.28-2.22-.28-4.35V14c0-2.17.28-4.35.28-4.35.05-.48.37-1.87.93-2.48a3.26 3.26 0 0 1 2.3-1h.13c3.74-.26 9.4-.3 9.45-.3.04 0 5.7.04 9.44.3h.19c.51.05 1.45.13 2.24 1 .56.61.84 2 .93 2.48.05.09.29 2.26.29 4.35v2.04Z"/>
  <path fill="#FF7D16" d="m21.3 15.2-8.79-4.83a.44.44 0 0 0-.46 0 .45.45 0 0 0-.23.4v9.43c0 .17.09.3.23.39.09.04.14.04.23.04.1 0 .14 0 .23-.04l8.78-4.61a.45.45 0 0 0 .23-.4c0-.17-.09-.3-.23-.38Zm-8.56 4.26V11.5l7.4 4.09-7.4 3.87Z"/>
</svg>
